<?xml version="1.0" encoding="UTF-8"?>
<svg viewBox="0 0 150.88162 246.68845" xmlns="http://www.w3.org/2000/svg">
 <defs>
  <linearGradient id="b" x1="1020.4" x2="1114.2" y1="908.22" y2="908.49" gradientUnits="userSpaceOnUse">
   <stop stop-color="#ff0" offset="0"/>
   <stop stop-color="#a80" offset=".5"/>
   <stop stop-color="#ff0" offset="1"/>
  </linearGradient>
  <linearGradient id="c" x1="1319.3" x2="1424.3" y1="1022.4" y2="1083.8" gradientUnits="userSpaceOnUse">
   <stop stop-color="#ff0" offset="0"/>
   <stop stop-color="#fff" offset=".5"/>
   <stop stop-color="#ff0" offset="1"/>
  </linearGradient>
  <linearGradient id="a" x1="204.51" x2="294.05" gradientUnits="userSpaceOnUse">
   <stop stop-color="#6c5d53" offset="0"/>
   <stop stop-color="#ac9d93" offset=".5"/>
   <stop stop-color="#6c5d53" offset="1"/>
  </linearGradient>
 </defs>
 <g transform="translate(45.711 -263.52)" stroke="#000">
  <path transform="matrix(1.1 0 0 1.2 -242.91 392.28)" d="m307.14 78.267a59.286 18.571 0 1 1 -118.57 0 59.286 18.571 0 1 1 118.57 0z" fill="url(#a)" stroke-width="3"/>
  <path transform="translate(-218.13 403.93)" d="m307.14 78.267a59.286 18.571 0 1 1 -118.57 0 59.286 18.571 0 1 1 118.57 0z" fill="#6c5d53" stroke-width="3"/>
  <g transform="matrix(.90631 -.42262 .42262 .90631 -1660.7 -34.748)" stroke-width="2">
   <path transform="matrix(.89424 .44759 -.44759 .89424 611.78 -341.84)" d="m1325 980.93a17.143 68.571 0 1 1 -34.286 0 17.143 68.571 0 1 1 34.286 0z" fill="#6c5d53"/>
   <path d="m1348.2 972.92s-68.621 106.59-68.692 106.73c-3.9122 7.8162 22.756 29.073 59.516 47.471s69.758 27.007 73.67 19.191l44.1-119.04-108.59-54.354z" fill="url(#c)"/>
   <path transform="matrix(1.045 .52306 -.44488 .88883 691.96 -366.49)" d="m1118.6 908.08a51.429 12.857 0 1 1 -102.86 0 51.429 12.857 0 1 1 102.86 0z" fill="url(#b)"/>
  </g>
 </g>
</svg>
